<svg xmlns="http://www.w3.org/2000/svg" viewBox="0 0 100 100">
  <defs>
    <linearGradient id="g" x1="0%" y1="0%" x2="100%" y2="100%">
      <stop offset="0%" stop-color="#6366f1"/>
      <stop offset="100%" stop-color="#a855f7"/>
    </linearGradient>
  </defs>
  <rect width="100" height="100" rx="22" fill="url(#g)"/>
  <path d="M35 30c-3 0-5 2-5 5v7c0 14 12 26 26 26h7c3 0 5-2 5-5v-6c0-2-1-3-3-4l-8-3c-2-1-3 0-4 1l-3 4c-6-3-10-7-13-13l4-3c1-1 2-2 1-4l-3-8c-1-2-2-3-4-3h0z" fill="white" stroke="none"/>
</svg>